<svg width="161" height="185" viewBox="0 0 161 185" fill="none" xmlns="http://www.w3.org/2000/svg">
  <path d="M146.2 130.5L80 168.7L13.8 130.5V54.1L80 15.9L146.2 54.1V130.5Z" fill="white" fill-opacity="0.9" />
  <path d="M-1.52588e-05 122.5L-1.52588e-05 138.5L79.9 184.8L93.8 176.8L-1.52588e-05 122.5Z" fill="#4caf50"/>
  <path d="M14 38.2L0.1 46.1L0 138.5L13.8 146.5L14 38.2Z" fill="#4caf50"/>
  <path d="M93.9 7.89999L80 -7.62939e-06L0.100021 46.4L0.20002 62.4L93.9 7.89999Z" fill="#4caf50"/>
  <path d="M159.9 62.1V46.1L79.9 7.62939e-06L66 8.00001L159.9 62.1Z" fill="#4caf50"/>
  <path d="M146.1 146.5L160 138.5L160.1 46.1L146.2 38.1L146.1 146.5Z" fill="#4caf50"/>
  <path d="M66.1 176.7L80 184.7L160 138.5V122.5L66.1 176.7Z" fill="#4caf50"/>
  <path d="M62.3031 116.8V65.6125H79.8461C85.6352 65.6125 90.0414 66.7726 93.0648 69.093C96.0883 71.4133 97.6 74.8703 97.6 79.4641C97.6 81.8078 96.9672 83.9172 95.7015 85.7922C94.4359 87.6672 92.5844 89.1203 90.1469 90.1516C92.9125 90.9016 95.0511 92.3136 96.5629 94.3879C98.0746 96.4621 98.8304 98.9523 98.8304 101.859C98.8304 106.663 97.2894 110.355 94.2074 112.933C91.1254 115.511 86.7133 116.8 80.9711 116.8H62.3031ZM71.1976 93.7023V109.698H81.0765C83.8656 109.698 86.0453 109.007 87.6156 107.624C89.1859 106.241 89.9711 104.32 89.9711 101.859C89.9711 96.5382 87.2523 93.8195 81.8148 93.7023H71.1976ZM71.1976 87.1633H79.9164C82.682 87.1633 84.8441 86.5363 86.4027 85.2824C87.9613 84.0285 88.7406 82.2531 88.7406 79.9562C88.7406 77.425 88.0199 75.5969 86.5785 74.4719C85.1371 73.3469 82.893 72.7844 79.8461 72.7844H71.1976V87.1633Z" fill="#4caf50"/>
</svg>
