<svg xmlns="http://www.w3.org/2000/svg" width="390" height="185" viewBox="0 0 390 185">
  <g fill="none" transform="translate(.9 .2)">
    <polygon fill="#FFF" points="0 46.2 80 0 160 46.2 160 138.6 80 184.7 0 138.6" transform="rotate(180 80 92.35)"/>
    <polygon fill="#1D2532" points="13.8 54.1 80 15.9 146.2 54.1 146.2 130.5 80 168.7 13.8 130.5" transform="rotate(180 80 92.3)"/>
    <polygon fill="#E91E63" points="93.8 184.8 93.8 168.8 13.9 122.5 0 130.5 0 130.5" opacity=".9" transform="rotate(180 46.9 153.65)"/>
    <polygon fill="#9C27B0" points="0 146.5 13.9 138.6 14 46.2 .2 38.2 .2 38.2" opacity=".9" transform="rotate(180 7 92.35)"/>
    <polygon fill="#42A5F5" points=".1 54.5 14 62.4 93.9 16 93.8 0" opacity=".9" transform="rotate(180 47 31.2)"/>
    <polygon fill="#26A69A" points="66 0 66 16 146 62.1 159.9 54.1 159.9 54.1" opacity=".9" transform="rotate(180 112.95 31.05)"/>
    <polygon fill="#66BB6A" points="160.1 38.1 146.2 46.1 146.1 138.5 160 146.5" opacity=".9" transform="rotate(180 153.1 92.3)"/>
    <polygon fill="#FFEB3B" points="160 130.5 146.1 122.5 66.1 168.7 66.1 184.7 66.1 184.7" opacity=".9" transform="rotate(180 113.05 153.6)"/>
    <path fill="#FFF" d="M62.303125,116.8 L62.303125,65.6125 L79.8460938,65.6125 C85.6351852,65.6125 90.0413911,66.7726446 93.0648438,69.0929688 C96.0882964,71.4132929 97.6,74.8702895 97.6,79.4640625 C97.6,81.8078242 96.9671938,83.9171781 95.7015625,85.7921875 C94.4359312,87.6671969 92.5843872,89.1203073 90.146875,90.1515625 C92.9125138,90.9015663 95.0511643,92.3136615 96.5628906,94.3878906 C98.0746169,96.4621197 98.8304688,98.9523292 98.8304688,101.858594 C98.8304688,106.663305 97.2894685,110.354675 94.2074219,112.932813 C91.1253752,115.51095 86.71331,116.8 80.9710938,116.8 L62.303125,116.8 Z M71.1976563,93.7023438 L71.1976563,109.698438 L81.0765625,109.698438 C83.8656389,109.698438 86.0453046,109.007038 87.615625,107.624219 C89.1859454,106.241399 89.9710938,104.319544 89.9710938,101.858594 C89.9710938,96.5382546 87.2523709,93.8195318 81.8148438,93.7023438 L71.1976563,93.7023438 Z M71.1976563,87.1632813 L79.9164063,87.1632813 C82.6820451,87.1632813 84.8441328,86.5363344 86.4027344,85.2824219 C87.9613359,84.0285094 88.740625,82.2531365 88.740625,79.95625 C88.740625,77.4249873 88.0199291,75.5968806 86.5785156,74.471875 C85.1371022,73.3468694 82.892984,72.784375 79.8460938,72.784375 L71.1976563,72.784375 L71.1976563,87.1632813 Z"/>
    <path fill="#1D2532" d="M215.303125,116.8 L215.303125,65.6125 L232.846094,65.6125 C238.635185,65.6125 243.041391,66.7726446 246.064844,69.0929688 C249.088296,71.4132929 250.6,74.8702895 250.6,79.4640625 C250.6,81.8078242 249.967194,83.9171781 248.701563,85.7921875 C247.435931,87.6671969 245.584387,89.1203073 243.146875,90.1515625 C245.912514,90.9015663 248.051164,92.3136615 249.562891,94.3878906 C251.074617,96.4621197 251.830469,98.9523292 251.830469,101.858594 C251.830469,106.663305 250.289469,110.354675 247.207422,112.932813 C244.125375,115.51095 239.71331,116.8 233.971094,116.8 L215.303125,116.8 Z M224.197656,93.7023438 L224.197656,109.698438 L234.076563,109.698438 C236.865639,109.698438 239.045305,109.007038 240.615625,107.624219 C242.185945,106.241399 242.971094,104.319544 242.971094,101.858594 C242.971094,96.5382546 240.252371,93.8195318 234.814844,93.7023438 L224.197656,93.7023438 Z M224.197656,87.1632813 L232.916406,87.1632813 C235.682045,87.1632813 237.844133,86.5363344 239.402734,85.2824219 C240.961336,84.0285094 241.740625,82.2531365 241.740625,79.95625 C241.740625,77.4249873 241.019929,75.5968806 239.578516,74.471875 C238.137102,73.3468694 235.892984,72.784375 232.846094,72.784375 L224.197656,72.784375 L224.197656,87.1632813 Z M301.576563,92.5421875 C301.576563,97.5578376 300.709384,101.958184 298.975,105.743359 C297.240616,109.528535 294.762125,112.434755 291.539453,114.462109 C288.316781,116.489463 284.607833,117.503125 280.4125,117.503125 C276.264042,117.503125 272.566813,116.489463 269.320703,114.462109 C266.074593,112.434755 263.566806,109.546113 261.797266,105.796094 C260.027726,102.046075 259.13125,97.7218995 259.107813,92.8234375 L259.107813,89.940625 C259.107813,84.9484125 259.992569,80.5422066 261.762109,76.721875 C263.531649,72.9015434 266.027718,69.9777445 269.250391,67.9503906 C272.473063,65.9230367 276.170292,64.909375 280.342188,64.909375 C284.514083,64.909375 288.211312,65.9113181 291.433984,67.9152344 C294.656657,69.9191506 297.146866,72.8019343 298.904688,76.5636719 C300.662509,80.3254094 301.553125,84.7023188 301.576563,89.6945313 L301.576563,92.5421875 Z M292.682031,89.8703125 C292.682031,84.1984091 291.609776,79.8507964 289.465234,76.8273438 C287.320692,73.8038911 284.279707,72.2921875 280.342188,72.2921875 C276.498418,72.2921875 273.492589,73.7980318 271.324609,76.8097656 C269.15663,79.8214994 268.049219,84.0812225 268.002344,89.5890625 L268.002344,92.5421875 C268.002344,98.1672156 269.098036,102.514828 271.289453,105.585156 C273.48087,108.655484 276.521856,110.190625 280.4125,110.190625 C284.35002,110.190625 287.379286,108.69064 289.500391,105.690625 C291.621495,102.69061 292.682031,98.3078413 292.682031,92.5421875 L292.682031,89.8703125 Z M329.244531,97.0773438 L319.330469,97.0773438 L319.330469,116.8 L310.435938,116.8 L310.435938,65.6125 L328.435938,65.6125 C334.342217,65.6125 338.900765,66.9367055 342.111719,69.5851563 C345.322672,72.233607 346.928125,76.0655999 346.928125,81.08125 C346.928125,84.5031421 346.101961,87.3683478 344.449609,89.6769531 C342.797257,91.9855584 340.494546,93.7609313 337.541406,95.003125 L349.0375,116.342969 L349.0375,116.8 L339.510156,116.8 L329.244531,97.0773438 Z M319.330469,89.940625 L328.471094,89.940625 C331.471109,89.940625 333.814835,89.1847732 335.502344,87.6730469 C337.189852,86.1613206 338.033594,84.0929819 338.033594,81.4679688 C338.033594,78.7257675 337.254305,76.604695 335.695703,75.1046875 C334.137102,73.60468 331.810953,72.8312502 328.717188,72.784375 L319.330469,72.784375 L319.330469,89.940625 Z M385.283594,93.9484375 L364.260156,93.9484375 L364.260156,109.698438 L388.834375,109.698438 L388.834375,116.8 L355.365625,116.8 L355.365625,65.6125 L388.588281,65.6125 L388.588281,72.784375 L364.260156,72.784375 L364.260156,86.9171875 L385.283594,86.9171875 L385.283594,93.9484375 Z"/>
  </g>
</svg>
