<svg xmlns="http://www.w3.org/2000/svg" width="1279" height="607" viewBox="0 0 1279 607">
  <g fill="none" opacity=".5">
    <path fill="#4D8AF0" d="M980.10777,117.627165 C977.131235,116.281593 975.621825,112.930704 976.58645,109.809834 C976.660359,109.575263 976.707606,109.333112 976.727303,109.087963 L976.727303,109.087963 C976.819591,107.657022 975.960217,106.335646 974.614782,105.839746 C973.269348,105.343845 971.757977,105.791412 970.899517,106.939958 L970.899517,106.939958 C970.758538,107.137234 970.640405,107.349874 970.547385,107.573795 C969.23954,110.590702 965.874626,112.144323 962.730054,111.183149 C962.495007,111.111129 962.253065,111.06392 962.008183,111.042296 L962.008183,111.042296 C960.577242,110.950007 959.255866,111.809382 958.759966,113.154817 C958.264065,114.50025 958.711632,116.011622 959.860178,116.870081 L959.860178,116.870081 C960.054657,117.020104 960.267698,117.144378 960.494015,117.23982 C963.470551,118.585392 964.979961,121.936281 964.015336,125.057151 C963.943115,125.286138 963.895889,125.522267 963.874483,125.761416 L963.874483,125.761416 C963.773347,127.195764 964.629767,128.525136 965.977623,129.026002 C967.325481,129.526867 968.842193,129.079353 969.702268,127.927028 L969.702268,127.927028 C969.846954,127.725789 969.965293,127.506864 970.0544,127.275583 C971.394025,124.293099 974.750347,122.781243 977.871732,123.754263 C978.106778,123.826283 978.348721,123.873491 978.593603,123.895116 L978.593603,123.895116 C980.024544,123.987404 981.34592,123.128029 981.84182,121.782595 C982.337721,120.437161 981.890154,118.925789 980.741608,118.06733 L980.741608,118.06733 C980.551244,117.892572 980.338014,117.744497 980.10777,117.627165 L980.10777,117.627165 Z M118.531224,594.768638 C115.520281,593.454694 113.969206,590.095295 114.921871,586.951307 C114.995779,586.716736 115.043028,586.474585 115.062724,586.229436 L115.062724,586.229436 C115.155012,584.798495 114.295638,583.477119 112.950203,582.981219 C111.604768,582.485318 110.093398,582.932885 109.234938,584.081431 L109.234938,584.081431 C109.093958,584.278707 108.975825,584.491347 108.882806,584.715268 C107.574961,587.732175 104.210047,589.285796 101.065475,588.324622 C100.830427,588.252602 100.588484,588.205393 100.343604,588.183769 L100.343604,588.183769 C98.9126619,588.09148 97.5912864,588.950855 97.0953859,590.29629 C96.5994855,591.641723 97.0470521,593.153095 98.1955983,594.011554 L98.1955983,594.011554 C98.3900765,594.161577 98.6031183,594.285851 98.829436,594.381293 C101.84038,595.695237 103.391454,599.054636 102.43879,602.198624 C102.366568,602.427611 102.319342,602.66374 102.297937,602.902889 L102.297937,602.902889 C102.196801,604.337237 103.053221,605.666609 104.401077,606.167475 C105.748934,606.66834 107.265647,606.220826 108.125722,605.068501 L108.125722,605.068501 C108.270408,604.867263 108.388747,604.648337 108.477854,604.417056 C109.81748,601.434572 113.173801,599.922716 116.295186,600.895736 C116.530233,600.967756 116.772176,601.014964 117.017056,601.036589 L117.017056,601.036589 C118.447998,601.128877 119.769374,600.269503 120.265274,598.924068 C120.761175,597.578634 120.313608,596.067263 119.165062,595.208803 L119.165062,595.208803 C118.974698,595.034045 118.761467,594.88597 118.531224,594.768638 Z M21.6949106,11.9900963 C18.7183746,10.644524 17.2089655,7.29363543 18.1735901,4.17276479 C18.2474982,3.93819378 18.2947471,3.69604314 18.3144429,3.45089409 L18.3144429,3.45089409 C18.4067309,2.01995268 17.5473574,0.698577166 16.2019226,0.202676644 C14.8564879,-0.293223879 13.3451174,0.154342999 12.4866575,1.30288858 L12.4866575,1.30288858 C12.3456774,1.50016528 12.2275439,1.7128055 12.1345254,1.93672627 C10.8266804,4.95363345 7.46176607,6.50725414 4.31719395,5.54607978 C4.08214669,5.47405997 3.8402038,5.42685139 3.59532325,5.40522696 L3.59532325,5.40522696 C2.16438131,5.31293843 0.843005799,6.17231318 0.347105276,7.51774812 C-0.14879507,8.86318129 0.298771455,10.3745532 1.44731774,11.2330124 L1.44731774,11.2330124 C1.64179587,11.3830347 1.8548377,11.5073092 2.08115543,11.602751 C5.09209908,12.9166948 6.6431735,16.2760944 5.69050894,19.4200825 C5.61828754,19.6490687 5.5710617,19.8851979 5.54965612,20.1243466 L5.54965612,20.1243466 C5.44851992,21.5586949 6.30493993,22.8880673 7.65279683,23.3889329 C9.00065356,23.8897985 10.5173664,23.4422845 11.3774415,22.2899587 L11.3774415,22.2899587 C11.5221278,22.0887206 11.6404664,21.8697948 11.7295736,21.6385144 C13.0691992,18.6560299 16.4255209,17.1441739 19.5469051,18.1171939 C19.7819524,18.1892138 20.0238952,18.2364223 20.2687758,18.2580468 L20.2687758,18.2580468 C21.6997177,18.3503353 23.0210932,17.4909606 23.5169938,16.1455256 C24.0128941,14.8000924 23.5653276,13.2887206 22.4167813,12.4302613 L22.4167813,12.4302613 C22.1993605,12.2484925 21.9560647,12.1001411 21.6949106,11.9900963 Z"/>
    <g fill="#47E6B1" transform="translate(1249.069 507.07)">
      <rect width="5.282" height="29.931" x="12.325" y="1.497"/>
      <polygon points="12.325 1.497 17.607 1.497 17.607 31.428 12.325 31.428" transform="rotate(90 14.966 16.462)"/>
    </g>
    <circle cx="303.594" cy="334.261" r="10.564" fill="#F55F44"/>
    <g fill="#47E6B1" transform="translate(551.847 19.367)">
      <rect width="5.282" height="29.931" x="12.325" y="1.497"/>
      <polygon points="12.325 1.497 17.607 1.497 17.607 31.428 12.325 31.428" transform="rotate(90 14.966 16.462)"/>
    </g>
  </g>
</svg>
